<?xml version="1.0" encoding="UTF-8"?>
<svg width="601px" height="902px" viewBox="0 0 601 902" version="1.1" xmlns="http://www.w3.org/2000/svg" xmlns:xlink="http://www.w3.org/1999/xlink">
    <title>Fill 1</title>
    <g id="Page-1" stroke="none" stroke-width="1" fill="none" fill-rule="evenodd">
        <g id="vector60-6783-01" transform="translate(-302.000000, -168.000000)" fill="#AB9472">
            <path d="M601.349,628.065 C508.512,628.065 433.253,553.487 433.253,461.49 C433.253,369.493 508.512,294.915 601.349,294.915 C694.186,294.915 769.444,369.493 769.444,461.49 C769.444,553.487 694.186,628.065 601.349,628.065 Z M302,464.89 C302,519.827 317.12,571.267 343.449,615.4 L601.349,1070 L861.559,615.383 C887.886,571.254 903,519.82 903,464.89 C903,300.922 768.462,168 602.5,168 C436.538,168 302,300.922 302,464.89 Z" id="Fill-1"></path>
        </g>
    </g>
</svg>