<svg xmlns="http://www.w3.org/2000/svg" xmlns:xlink="http://www.w3.org/1999/xlink" width="30" height="30" viewBox="0 0 30 30">
  <defs>
    <clipPath id="clip-path">
      <rect id="Rectangle_48" data-name="Rectangle 48" width="30" height="30" transform="translate(139 2382)" fill="#2b2e2e"/>
    </clipPath>
  </defs>
  <g id="Mask_Group_5" data-name="Mask Group 5" transform="translate(-139 -2382)" clip-path="url(#clip-path)">
    <g id="Garage:Storage_2-car_garage_icon" data-name="Garage:Storage_2-car garage icon" transform="translate(139.038 2382.102)">
      <path id="Path_262" data-name="Path 262" d="M.623,13.493l13.5-12.323a1.247,1.247,0,0,1,1.683,0L29.3,13.493" fill="rgba(0,0,0,0)" stroke="#8e8e8e" stroke-linecap="round" stroke-linejoin="round" stroke-width="0.935"/>
      <path id="Path_263" data-name="Path 263" d="M8.1,20.351H21.817a2.493,2.493,0,0,1,2.495,2.493v2.493a1.247,1.247,0,0,1-1.247,1.247H6.858A1.247,1.247,0,0,1,5.61,25.339V22.844A2.493,2.493,0,0,1,8.1,20.351Z" fill="rgba(0,0,0,0)" stroke="#8e8e8e" stroke-linecap="round" stroke-linejoin="round" stroke-width="0.935"/>
      <path id="Path_264" data-name="Path 264" d="M5.61,24.091H8.728" fill="rgba(0,0,0,0)" stroke="#8e8e8e" stroke-linecap="round" stroke-linejoin="round" stroke-width="0.935"/>
      <path id="Path_265" data-name="Path 265" d="M21.195,24.091h3.118" fill="rgba(0,0,0,0)" stroke="#8e8e8e" stroke-linecap="round" stroke-linejoin="round" stroke-width="0.935"/>
      <path id="Path_266" data-name="Path 266" d="M8.1,20.351l.488-3.894a1.247,1.247,0,0,1,1.236-1.092H20.093a1.247,1.247,0,0,1,1.236,1.092l.488,3.9" fill="rgba(0,0,0,0)" stroke="#8e8e8e" stroke-linecap="round" stroke-linejoin="round" stroke-width="0.935"/>
      <path id="Path_267" data-name="Path 267" d="M4.988,18.481l3.118,1.87" fill="rgba(0,0,0,0)" stroke="#8e8e8e" stroke-linecap="round" stroke-linejoin="round" stroke-width="0.935"/>
      <path id="Path_268" data-name="Path 268" d="M24.935,18.481l-3.118,1.87" fill="rgba(0,0,0,0)" stroke="#8e8e8e" stroke-linecap="round" stroke-linejoin="round" stroke-width="0.935"/>
      <path id="Path_269" data-name="Path 269" d="M9.351,26.584v1.247a1.247,1.247,0,0,1-2.493,0V26.584" fill="rgba(0,0,0,0)" stroke="#8e8e8e" stroke-linecap="round" stroke-linejoin="round" stroke-width="0.935"/>
      <path id="Path_270" data-name="Path 270" d="M23.065,26.584v1.247a1.247,1.247,0,0,1-2.493,0V26.584" fill="rgba(0,0,0,0)" stroke="#8e8e8e" stroke-linecap="round" stroke-linejoin="round" stroke-width="0.935"/>
    </g>
  </g>
</svg>
