<svg xmlns="http://www.w3.org/2000/svg" xmlns:xlink="http://www.w3.org/1999/xlink" width="30" height="30" viewBox="0 0 30 30">
  <defs>
    <clipPath id="clip-path">
      <rect id="Rectangle_68" data-name="Rectangle 68" width="30" height="30" transform="translate(967 2511)" fill="#2b2e2e"/>
    </clipPath>
  </defs>
  <g id="Mask_Group_20" data-name="Mask Group 20" transform="translate(-967 -2511)" clip-path="url(#clip-path)">
    <g id="Views_360_degree_views_icon" data-name="Views_360 degree views icon" transform="translate(966.843 2509.686)">
      <path id="Path_1142" data-name="Path 1142" d="M.631,23.368a6.315,6.315,0,1,0,6.316-6.315A6.315,6.315,0,0,0,.631,23.368Z" fill="rgba(0,0,0,0)" stroke="#8e8e8e" stroke-linecap="round" stroke-linejoin="round" stroke-width="0.947"/>
      <path id="Path_1143" data-name="Path 1143" d="M13.263,8.843V3.79a2.882,2.882,0,0,0-3.79,0L7.579,8.843,5.684,10.738l-3.79,8.841" fill="rgba(0,0,0,0)" stroke="#8e8e8e" stroke-linecap="round" stroke-linejoin="round" stroke-width="0.947"/>
      <path id="Path_1144" data-name="Path 1144" d="M17.053,23.368a6.315,6.315,0,1,0,6.315-6.315,6.315,6.315,0,0,0-6.315,6.315Z" fill="rgba(0,0,0,0)" stroke="#8e8e8e" stroke-linecap="round" stroke-linejoin="round" stroke-width="0.947"/>
      <path id="Path_1145" data-name="Path 1145" d="M17.053,8.843V3.869a2.882,2.882,0,0,1,3.79,0l1.895,4.974,1.895,1.895,3.79,8.843" fill="rgba(0,0,0,0)" stroke="#8e8e8e" stroke-linecap="round" stroke-linejoin="round" stroke-width="0.947"/>
      <path id="Path_1146" data-name="Path 1146" d="M10.1,13.894c0-1.389,2.262-2.526,5.053-2.526s5.053,1.137,5.053,2.526" fill="rgba(0,0,0,0)" stroke="#8e8e8e" stroke-linecap="round" stroke-linejoin="round" stroke-width="0.947"/>
      <path id="Path_1147" data-name="Path 1147" d="M13.263,23.368V11.558" fill="rgba(0,0,0,0)" stroke="#8e8e8e" stroke-linecap="round" stroke-linejoin="round" stroke-width="0.947"/>
      <path id="Path_1148" data-name="Path 1148" d="M17.053,23.368V11.558" fill="rgba(0,0,0,0)" stroke="#8e8e8e" stroke-linecap="round" stroke-linejoin="round" stroke-width="0.947"/>
    </g>
  </g>
</svg>
