<svg id="Group_91" data-name="Group 91" xmlns="http://www.w3.org/2000/svg" xmlns:xlink="http://www.w3.org/1999/xlink" width="41.163" height="29.396" viewBox="0 0 41.163 29.396">
  <defs>
    <clipPath id="clip-path">
      <rect id="Rectangle_88" data-name="Rectangle 88" width="41.163" height="29.396" fill="#ab9472"/>
    </clipPath>
  </defs>
  <g id="Group_90" data-name="Group 90" transform="translate(0 0)" clip-path="url(#clip-path)">
    <path id="Path_502" data-name="Path 502" d="M29.31,26.062,29,24.457c6.493-1.253,10.527-3.971,10.527-7.092,0-2.758-2.917-5.13-8-6.511l.428-1.578c8.014,2.175,9.211,6,9.211,8.089,0,4.015-4.431,7.266-11.852,8.7M22.92,22.7l-1.156,1.156,1.368,1.374H20.548c-10.43,0-18.913-3.527-18.913-7.867,0-2.481,2.268-4.612,6.39-6L7.507,9.812C2.666,11.443,0,14.125,0,17.363c0,5.419,8.832,9.5,20.548,9.5h2.584L21.764,28.24,22.92,29.4l3.347-3.347ZM9.74,9.949a3.632,3.632,0,0,0,.426,1.7,2.777,2.777,0,0,0,2.6,1.223,2.955,2.955,0,0,0,2.3-.849,2.831,2.831,0,0,0,.775-1.969,2.179,2.179,0,0,0-.663-1.68,1.254,1.254,0,0,0-.681-.408,1.584,1.584,0,0,0,.608-.456A1.944,1.944,0,0,0,15.566,6.2a2.183,2.183,0,0,0-.775-1.756,3.059,3.059,0,0,0-2.041-.654,3.478,3.478,0,0,0-1.149.165,2.322,2.322,0,0,0-.809.475,2.8,2.8,0,0,0-.669.956A4.363,4.363,0,0,0,9.9,6.632h1.619a1.654,1.654,0,0,1,.276-1.041,1.047,1.047,0,0,1,.9-.389,1.076,1.076,0,0,1,.829.316,1.157,1.157,0,0,1,.294.822,1.015,1.015,0,0,1-.576,1.035,3.273,3.273,0,0,1-1.177.165V8.78a3.578,3.578,0,0,1,1.262.164,1.136,1.136,0,0,1,.7,1.163,1.3,1.3,0,0,1-.379,1.007,1.27,1.27,0,0,1-.89.35,1.166,1.166,0,0,1-1.148-.639,1.994,1.994,0,0,1-.17-.876Zm12.9-3.9a2.393,2.393,0,0,0-.822-1.676,2.9,2.9,0,0,0-1.96-.63,2.664,2.664,0,0,0-1.464.39,3.024,3.024,0,0,0-.99,1.028,5.043,5.043,0,0,0-.59,1.875,12.912,12.912,0,0,0-.085,1.643,5.681,5.681,0,0,0,.615,2.812,2.634,2.634,0,0,0,2.459,1.394,2.722,2.722,0,0,0,2.288-.943,3.444,3.444,0,0,0,.737-2.179,2.854,2.854,0,0,0-.751-2.04,2.742,2.742,0,0,0-2.9-.62,1.947,1.947,0,0,0-.749.56A5.862,5.862,0,0,1,18.7,6.12a1.251,1.251,0,0,1,1.205-.95.953.953,0,0,1,.846.414.886.886,0,0,1,.164.468Zm-4.169,3.81a1.515,1.515,0,0,1,.511-1.278,1.237,1.237,0,0,1,.785-.268,1.208,1.208,0,0,1,.926.411,1.69,1.69,0,0,1,.377,1.184,1.813,1.813,0,0,1-.332,1.13,1.082,1.082,0,0,1-.91.435,1.222,1.222,0,0,1-.974-.45,1.73,1.73,0,0,1-.383-1.162M26.71,3.771a2.493,2.493,0,0,0-2.365,1.186,6.872,6.872,0,0,0-.679,3.373,6.832,6.832,0,0,0,.679,3.366,2.5,2.5,0,0,0,2.365,1.181A2.5,2.5,0,0,0,29.075,11.7a6.832,6.832,0,0,0,.679-3.366,6.872,6.872,0,0,0-.679-3.373A2.494,2.494,0,0,0,26.71,3.771M25.438,8.33a8.2,8.2,0,0,1,.25-2.362A1,1,0,0,1,26.71,5.2a.982.982,0,0,1,1.014.767,8.512,8.512,0,0,1,.241,2.362,8.61,8.61,0,0,1-.241,2.328.991.991,0,0,1-1.014.806,1,1,0,0,1-1.022-.806,8.3,8.3,0,0,1-.25-2.328m7.309-6.56a1.935,1.935,0,0,0-.42-1.244,1.808,1.808,0,0,0-2.55,0,1.932,1.932,0,0,0-.42,1.244,1.92,1.92,0,0,0,.42,1.248,1.829,1.829,0,0,0,2.55,0,1.923,1.923,0,0,0,.42-1.248m-1.7,1.039a.691.691,0,0,1-.586-.27,1.25,1.25,0,0,1-.206-.769A1.243,1.243,0,0,1,30.463,1a.77.77,0,0,1,1.17,0,1.25,1.25,0,0,1,.2.767,1.257,1.257,0,0,1-.2.769.688.688,0,0,1-.584.27" transform="translate(0 0)" fill="#ab9472"/>
  </g>
</svg>
