<svg xmlns="http://www.w3.org/2000/svg" viewBox="0 0 24 24" height="48" width="48"><defs></defs><title>ac-cool</title><rect x="0.5" y="1.5" width="23" height="11" rx="1" ry="1" fill="none" stroke="#8e8e8e" stroke-linecap="round" stroke-linejoin="round"></rect><path d="M2.5,12.5v-1a1,1,0,0,1,1-1h17a1,1,0,0,1,1,1v1" fill="none" stroke="#8e8e8e" stroke-linecap="round" stroke-linejoin="round"></path><line x1="3.5" y1="4.5" x2="20.5" y2="4.5" fill="none" stroke="#8e8e8e" stroke-linecap="round" stroke-linejoin="round"></line><line x1="3.5" y1="7.5" x2="20.5" y2="7.5" fill="none" stroke="#8e8e8e" stroke-linecap="round" stroke-linejoin="round"></line><path d="M4,14.5a3.491,3.491,0,0,0-1,2,3.491,3.491,0,0,0,1,2" fill="none" stroke="#8e8e8e" stroke-linecap="round" stroke-linejoin="round"></path><path d="M4,22.5a3.491,3.491,0,0,0,1-2,3.491,3.491,0,0,0-1-2" fill="none" stroke="#8e8e8e" stroke-linecap="round" stroke-linejoin="round"></path><path d="M20,14.5a3.491,3.491,0,0,0-1,2,3.491,3.491,0,0,0,1,2" fill="none" stroke="#8e8e8e" stroke-linecap="round" stroke-linejoin="round"></path><path d="M20,22.5a3.491,3.491,0,0,0,1-2,3.491,3.491,0,0,0-1-2" fill="none" stroke="#8e8e8e" stroke-linecap="round" stroke-linejoin="round"></path><line x1="12" y1="15.5" x2="12" y2="21.5" fill="none" stroke="#8e8e8e" stroke-linecap="round" stroke-linejoin="round"></line><line x1="9.402" y1="17" x2="14.598" y2="20" fill="none" stroke="#8e8e8e" stroke-linecap="round" stroke-linejoin="round"></line><line x1="14.598" y1="17" x2="9.402" y2="20" fill="none" stroke="#8e8e8e" stroke-linecap="round" stroke-linejoin="round"></line></svg>