<svg xmlns="http://www.w3.org/2000/svg" xmlns:xlink="http://www.w3.org/1999/xlink" width="20" height="17.987" viewBox="0 0 20 17.987">
  <defs>
    <clipPath id="clip-path">
      <rect id="Rectangle_13" data-name="Rectangle 13" width="20" height="17.987" transform="translate(0 0)" fill="#ab9472"/>
    </clipPath>
  </defs>
  <g id="Group_13" data-name="Group 13" transform="translate(0 0)">
    <g id="Group_12" data-name="Group 12" clip-path="url(#clip-path)">
      <path id="Path_19" data-name="Path 19" d="M20,9.487a1.5,1.5,0,0,0-1.5-1.5H3V2a.994.994,0,0,1,.3-.711A.951.951,0,0,1,4.009,1,1,1,0,0,1,5,2v.077A1.5,1.5,0,0,0,4,3.487v1a.5.5,0,0,0,.5.5h2a.5.5,0,0,0,.5-.5v-1A1.5,1.5,0,0,0,6,2.079V2A2,2,0,0,0,4.019,0,1.928,1.928,0,0,0,2.593.58,1.982,1.982,0,0,0,2,2V7.987H1.5a1.5,1.5,0,0,0-.378,2.946l1.22,3.661a3.486,3.486,0,0,0,1.483,1.861l-.679.678a.5.5,0,0,0,.708.708l.966-.967a3.51,3.51,0,0,0,.842.113h8.676a3.51,3.51,0,0,0,.842-.113l.966.967a.5.5,0,0,0,.708-.708l-.679-.678a3.486,3.486,0,0,0,1.483-1.861l1.22-3.661A1.5,1.5,0,0,0,20,9.487M6,3.987H5v-.5a.5.5,0,0,1,1,0ZM16.709,14.278a2.5,2.5,0,0,1-2.371,1.709H5.662a2.5,2.5,0,0,1-2.371-1.709l-1.1-3.291H17.806ZM18.5,9.987H1.5a.5.5,0,0,1,0-1h17a.5.5,0,0,1,0,1" fill="#ab9472"/>
    </g>
  </g>
</svg>
