<svg id="Group_11" data-name="Group 11" xmlns="http://www.w3.org/2000/svg" xmlns:xlink="http://www.w3.org/1999/xlink" width="20" height="16" viewBox="0 0 20 16">
  <defs>
    <clipPath id="clip-path">
      <rect id="Rectangle_12" data-name="Rectangle 12" width="20" height="16" fill="#ab9472"/>
    </clipPath>
  </defs>
  <g id="Group_10" data-name="Group 10" clip-path="url(#clip-path)">
    <path id="Path_18" data-name="Path 18" d="M20,7.5A1.5,1.5,0,0,0,18.5,6H8.949A2.5,2.5,0,0,0,6.5,4h-2A2.471,2.471,0,0,0,3,4.513V.5A.5.5,0,0,0,2.5,0H.5A.5.5,0,0,0,0,.5v15a.5.5,0,0,0,.5.5h2a.5.5,0,0,0,.5-.5V15H17v.5a.5.5,0,0,0,.5.5h2a.5.5,0,0,0,.5-.5v-6a.5.5,0,0,0-.151-.357A1.476,1.476,0,0,0,20,8.5Zm-1,0v1a.5.5,0,0,1-.5.5H3V7H18.5a.5.5,0,0,1,.5.5M4.5,5h2A1.5,1.5,0,0,1,7.915,6H3.085A1.5,1.5,0,0,1,4.5,5M1,1H2V9H1ZM19,15H18v-.5a.5.5,0,0,0-.5-.5H2.5a.5.5,0,0,0-.5.5V15H1V10H19Z" fill="#ab9472"/>
  </g>
</svg>
