<svg xmlns="http://www.w3.org/2000/svg" width="44" height="44" viewBox="0 0 44 44">
  <g id="Group_261" data-name="Group 261" transform="translate(-537 -2771)">
    <path id="Path_522" data-name="Path 522" d="M42.842,4.632H6.947V1.158a1.158,1.158,0,0,0-2.316,0V4.632H1.158a1.158,1.158,0,0,0,0,2.316H4.632V42.842a1.158,1.158,0,0,0,2.316,0V6.947h6.947v4.632H10.421a1.157,1.157,0,0,0-1.158,1.158V33.579a1.158,1.158,0,0,0,1.158,1.158H40.526a1.158,1.158,0,0,0,1.158-1.158V12.737a1.157,1.157,0,0,0-1.158-1.158H37.053V6.947h5.789a1.158,1.158,0,0,0,0-2.316m-3.474,9.263V32.421H11.579V13.895h2.316v3.474a1.158,1.158,0,1,0,2.316,0V13.895H34.737v3.474a1.158,1.158,0,0,0,2.316,0V13.895Zm-4.632-2.316H16.211V6.947H34.737Z" transform="translate(537 2771)" fill="#c4cfd5"/>
  </g>
</svg>
