<svg xmlns="http://www.w3.org/2000/svg" xmlns:xlink="http://www.w3.org/1999/xlink" width="30" height="30" viewBox="0 0 30 30">
  <defs>
    <clipPath id="clip-path">
      <rect id="Rectangle_60" data-name="Rectangle 60" width="30" height="30" transform="translate(691 2382)" fill="#2b2e2e"/>
    </clipPath>
  </defs>
  <g id="Mask_Group_7" data-name="Mask Group 7" transform="translate(-691 -2382)" clip-path="url(#clip-path)">
    <g id="Living_Spaces_Bunk_room_icon" data-name="Living Spaces_Bunk room icon" transform="translate(690.843 2381.843)">
      <path id="Path_425" data-name="Path 425" d="M20.841,20.841H.631v5.053h20.21" fill="rgba(0,0,0,0)" stroke="#8e8e8e" stroke-linecap="round" stroke-linejoin="round" stroke-width="0.947"/>
      <path id="Path_426" data-name="Path 426" d="M20.841,5.684H.631v5.053h20.21" fill="rgba(0,0,0,0)" stroke="#8e8e8e" stroke-linecap="round" stroke-linejoin="round" stroke-width="0.947"/>
      <path id="Path_427" data-name="Path 427" d="M29.684,29.684V3.158" fill="rgba(0,0,0,0)" stroke="#8e8e8e" stroke-linecap="round" stroke-linejoin="round" stroke-width="0.947"/>
      <path id="Path_428" data-name="Path 428" d="M23.367,29.684V3.158" fill="rgba(0,0,0,0)" stroke="#8e8e8e" stroke-linecap="round" stroke-linejoin="round" stroke-width="0.947"/>
      <path id="Path_429" data-name="Path 429" d="M.631,29.684V.631" fill="rgba(0,0,0,0)" stroke="#8e8e8e" stroke-linecap="round" stroke-linejoin="round" stroke-width="0.947"/>
      <path id="Path_430" data-name="Path 430" d="M23.367,15.788h6.315" fill="rgba(0,0,0,0)" stroke="#8e8e8e" stroke-linecap="round" stroke-linejoin="round" stroke-width="0.947"/>
      <path id="Path_431" data-name="Path 431" d="M23.367,20.841h6.315" fill="rgba(0,0,0,0)" stroke="#8e8e8e" stroke-linecap="round" stroke-linejoin="round" stroke-width="0.947"/>
      <path id="Path_432" data-name="Path 432" d="M23.367,25.894h6.315" fill="rgba(0,0,0,0)" stroke="#8e8e8e" stroke-linecap="round" stroke-linejoin="round" stroke-width="0.947"/>
      <path id="Path_433" data-name="Path 433" d="M23.367,10.737h6.315" fill="rgba(0,0,0,0)" stroke="#8e8e8e" stroke-linecap="round" stroke-linejoin="round" stroke-width="0.947"/>
      <path id="Path_434" data-name="Path 434" d="M23.367,5.684h6.315" fill="rgba(0,0,0,0)" stroke="#8e8e8e" stroke-linecap="round" stroke-linejoin="round" stroke-width="0.947"/>
      <path id="Path_435" data-name="Path 435" d="M8.21,18.316H5.684a2.526,2.526,0,0,0-2.526,2.526h7.579A2.526,2.526,0,0,0,8.21,18.316Z" fill="rgba(0,0,0,0)" stroke="#8e8e8e" stroke-linecap="round" stroke-linejoin="round" stroke-width="0.947"/>
      <path id="Path_436" data-name="Path 436" d="M8.21,3.158H5.684A2.526,2.526,0,0,0,3.158,5.684h7.579A2.526,2.526,0,0,0,8.21,3.158Z" fill="rgba(0,0,0,0)" stroke="#8e8e8e" stroke-linecap="round" stroke-linejoin="round" stroke-width="0.947"/>
    </g>
  </g>
</svg>
