<svg xmlns="http://www.w3.org/2000/svg" xmlns:xlink="http://www.w3.org/1999/xlink" width="43.996" height="44" viewBox="0 0 43.996 44">
  <defs>
    <clipPath id="clip-path">
      <rect id="Rectangle_86" data-name="Rectangle 86" width="43.996" height="44" fill="#c4cfd5"/>
    </clipPath>
  </defs>
  <g id="Group_86" data-name="Group 86" transform="translate(0 0)">
    <g id="Group_82" data-name="Group 82" transform="translate(0 0)" clip-path="url(#clip-path)">
      <path id="Path_499" data-name="Path 499" d="M43.219,1.828A1.1,1.1,0,0,0,42.165.777L22.815.006A1.06,1.06,0,0,0,22,.326L.32,22a1.1,1.1,0,0,0,0,1.548L20.448,43.68a1.1,1.1,0,0,0,1.55,0L43.674,22a1.1,1.1,0,0,0,.32-.817Zm-22,39.529L2.643,22.777,23.207,2.213l17.861.712.718,17.868Z" transform="translate(0 0.001)" fill="#c4cfd5"/>
      <path id="Path_500" data-name="Path 500" d="M25.187,7.422a1.1,1.1,0,0,0-1.548-1.55l-.777.775a5.608,5.608,0,0,0-7.741,0,5.925,5.925,0,0,0-1.261,6.547L15.92,18a3.74,3.74,0,0,1-.8,4.134,3.291,3.291,0,0,1-4.644,0L8.928,20.582a3.287,3.287,0,0,1,0-4.644l1.548-1.548a1.095,1.095,0,0,0-1.548-1.548L7.38,14.39a5.482,5.482,0,0,0,0,7.741l.011.011a.586.586,0,0,0-.061.039l-.723.725a1.095,1.095,0,0,0,1.548,1.548l.723-.725a.585.585,0,0,0,.039-.061l.011.011a5.479,5.479,0,0,0,7.741,0,5.916,5.916,0,0,0,1.263-6.545l-2.058-4.8a3.738,3.738,0,0,1,.795-4.136,3.365,3.365,0,0,1,4.644,0l1.548,1.548a3.289,3.289,0,0,1,0,4.647l-1.548,1.548a1.095,1.095,0,1,0,1.548,1.548l1.55-1.548a5.482,5.482,0,0,0,0-7.741Z" transform="translate(6.877 6.065)" fill="#c4cfd5"/>
    </g>
  </g>
</svg>
