<svg xmlns="http://www.w3.org/2000/svg" xmlns:xlink="http://www.w3.org/1999/xlink" width="30" height="30" viewBox="0 0 30 30">
  <defs>
    <clipPath id="clip-path">
      <rect id="Rectangle_47" data-name="Rectangle 47" width="30" height="30" transform="translate(139 2339)" fill="#2b2e2e"/>
    </clipPath>
  </defs>
  <g id="Mask_Group_1" data-name="Mask Group 1" transform="translate(-139 -2339)" clip-path="url(#clip-path)">
    <g id="Accessiblity_Elevator_icon" data-name="Accessiblity_Elevator icon" transform="translate(138.843 2338.843)">
      <path id="Path_1" data-name="Path 1" d="M12.867,14.955l.682,6.266a1.264,1.264,0,0,0,1.476,1.108l4.147-.731a1.264,1.264,0,0,1,1.408.813l.782,2.147a1.264,1.264,0,0,0,1.493.794l.43-.108" fill="rgba(0,0,0,0)" stroke="#8e8e8e" stroke-linecap="round" stroke-linejoin="round" stroke-width="0.947"/>
      <path id="Path_2" data-name="Path 2" d="M12.844,18.768a4.329,4.329,0,0,0-3.371,4.176,4.208,4.208,0,0,0,4.144,4.219,4.341,4.341,0,0,0,4.293-4.219V21.808" fill="rgba(0,0,0,0)" stroke="#8e8e8e" stroke-linecap="round" stroke-linejoin="round" stroke-width="0.947"/>
      <path id="Path_3" data-name="Path 3" d="M14.75,12.829a2.084,2.084,0,1,1-.612-1.48A2.084,2.084,0,0,1,14.75,12.829Z" fill="rgba(0,0,0,0)" stroke="#8e8e8e" stroke-linecap="round" stroke-linejoin="round" stroke-width="0.947"/>
      <path id="Path_4" data-name="Path 4" d="M12.844,18.768l4.687-1.194" fill="rgba(0,0,0,0)" stroke="#8e8e8e" stroke-linecap="round" stroke-linejoin="round" stroke-width="0.947"/>
      <path id="Path_5" data-name="Path 5" d="M26.525,28.42a1.264,1.264,0,0,1-1.264,1.264H5.053A1.264,1.264,0,0,1,3.789,28.42V9.473A1.264,1.264,0,0,1,5.053,8.21H25.261a1.264,1.264,0,0,1,1.264,1.264Z" fill="rgba(0,0,0,0)" stroke="#8e8e8e" stroke-linecap="round" stroke-linejoin="round" stroke-width="0.947"/>
      <path id="Path_6" data-name="Path 6" d="M6.315,3.158,8.842.631l2.526,2.527" fill="rgba(0,0,0,0)" stroke="#8e8e8e" stroke-linecap="round" stroke-linejoin="round" stroke-width="0.947"/>
      <path id="Path_7" data-name="Path 7" d="M8.842.631V5.684" fill="rgba(0,0,0,0)" stroke="#8e8e8e" stroke-linecap="round" stroke-linejoin="round" stroke-width="0.947"/>
      <path id="Path_8" data-name="Path 8" d="M18.947,3.158l2.526,2.526L24,3.158" fill="rgba(0,0,0,0)" stroke="#8e8e8e" stroke-linecap="round" stroke-linejoin="round" stroke-width="0.947"/>
      <path id="Path_9" data-name="Path 9" d="M21.472,5.684V.631" fill="rgba(0,0,0,0)" stroke="#8e8e8e" stroke-linecap="round" stroke-linejoin="round" stroke-width="0.947"/>
    </g>
  </g>
</svg>
