<svg xmlns="http://www.w3.org/2000/svg" width="42.239" height="44" viewBox="0 0 42.239 44">
  <g id="Group_260" data-name="Group 260" transform="translate(-577.307 -2811.5)">
    <path id="Path_523" data-name="Path 523" d="M82.065,58.642,68.47,49.483a1.089,1.089,0,0,0-1.218,1.806l2.4,1.612-8.221,5.539L53.206,52.9l2.2-1.48a1.089,1.089,0,1,0-1.218-1.806l-13.4,9.025a1.088,1.088,0,0,0,0,1.806L60.818,73.94a1.083,1.083,0,0,0,1.218,0L82.065,60.448a1.088,1.088,0,0,0,0-1.806M51.256,54.216l8.221,5.539-7.91,5.328-8.221-5.539ZM61.428,71.724,53.518,66.4l7.91-5.33,7.907,5.33Zm9.858-6.641-7.91-5.328L71.6,54.216l7.907,5.328Z" transform="translate(537 2781.372)" fill="#c4cfd5"/>
    <path id="Path_524" data-name="Path 524" d="M51.643,58.5v.525a1.089,1.089,0,1,0,2.179,0V58.5a4.253,4.253,0,0,0,3.961-4.229A4.577,4.577,0,0,0,54.892,50l-3.51-1.405a2.406,2.406,0,0,1-1.521-2.247,2.082,2.082,0,0,1,2.081-2.081h1.582A2.082,2.082,0,0,1,55.6,46.344v1.584a1.089,1.089,0,0,0,2.179,0V46.344a4.251,4.251,0,0,0-3.961-4.229v-.525a1.089,1.089,0,1,0-2.179,0v.525a4.251,4.251,0,0,0-3.961,4.229,4.577,4.577,0,0,0,2.891,4.271l3.51,1.405A2.406,2.406,0,0,1,55.6,54.267a2.082,2.082,0,0,1-2.081,2.081H51.942a2.082,2.082,0,0,1-2.081-2.081V52.683a1.089,1.089,0,1,0-2.179,0v1.584A4.253,4.253,0,0,0,51.643,58.5" transform="translate(545.695 2771)" fill="#c4cfd5"/>
  </g>
</svg>
