<svg xmlns="http://www.w3.org/2000/svg" xmlns:xlink="http://www.w3.org/1999/xlink" width="30" height="30" viewBox="0 0 30 30">
  <defs>
    <clipPath id="clip-path">
      <rect id="Rectangle_70" data-name="Rectangle 70" width="30" height="30" transform="translate(967 2339)" fill="#2b2e2e"/>
    </clipPath>
  </defs>
  <g id="Mask_Group_4" data-name="Mask Group 4" transform="translate(-967 -2339)" clip-path="url(#clip-path)">
    <g id="Entertainment_Game_room_icon" data-name="Entertainment_Game room icon" transform="translate(966.849 2338.854)">
      <path id="Path_190" data-name="Path 190" d="M18.417,21.022l-.759-3.06a.624.624,0,0,1,.234-.652l2.533-1.875a.624.624,0,0,1,.979.351l.759,3.06a.624.624,0,0,1-.234.652L19.4,21.372a.624.624,0,0,1-.979-.351Z" fill="rgba(0,0,0,0)" stroke="#8e8e8e" stroke-linecap="round" stroke-linejoin="round" stroke-width="0.937"/>
      <rect id="Rectangle_5" data-name="Rectangle 5" width="18.749" height="13.749" rx="0.624" transform="translate(10.273 24.901) rotate(-70.251)" fill="rgba(0,0,0,0)" stroke="#8e8e8e" stroke-linecap="round" stroke-linejoin="round" stroke-width="0.937"/>
      <path id="Path_191" data-name="Path 191" d="M11.741,10.618c.279,1.219-.8,2.109-2.016,2.391s-2.578-.051-2.859-1.267S8.6,8.133,8.6,8.133,11.46,9.4,11.741,10.618Z" fill="rgba(0,0,0,0)" stroke="#8e8e8e" stroke-linecap="round" stroke-linejoin="round" stroke-width="0.937"/>
      <line id="Line_15" data-name="Line 15" x2="0.281" y2="1.217" transform="translate(9.725 13.008)" fill="none" stroke="#8e8e8e" stroke-linecap="round" stroke-linejoin="round" stroke-width="0.937"/>
      <path id="Path_192" data-name="Path 192" d="M11.966,20.186,5.319,21.717a.624.624,0,0,1-.75-.469L.641,4.2a.624.624,0,0,1,.469-.75L13.3.634a.624.624,0,0,1,.75.469l1.875,8.1" fill="rgba(0,0,0,0)" stroke="#8e8e8e" stroke-linecap="round" stroke-linejoin="round" stroke-width="0.937"/>
      <path id="Path_193" data-name="Path 193" d="M3.624,5.3a.311.311,0,0,1,.313.313" fill="rgba(0,0,0,0)" stroke="#8e8e8e" stroke-linecap="round" stroke-linejoin="round" stroke-width="0.937"/>
      <path id="Path_194" data-name="Path 194" d="M3.313,5.612A.311.311,0,0,1,3.626,5.3" fill="rgba(0,0,0,0)" stroke="#8e8e8e" stroke-linecap="round" stroke-linejoin="round" stroke-width="0.937"/>
      <path id="Path_195" data-name="Path 195" d="M3.624,5.923a.313.313,0,0,1-.313-.313" fill="rgba(0,0,0,0)" stroke="#8e8e8e" stroke-linecap="round" stroke-linejoin="round" stroke-width="0.937"/>
      <path id="Path_196" data-name="Path 196" d="M3.937,5.612a.313.313,0,0,1-.313.313" fill="rgba(0,0,0,0)" stroke="#8e8e8e" stroke-linecap="round" stroke-linejoin="round" stroke-width="0.937"/>
      <path id="Path_197" data-name="Path 197" d="M21.423,25.486a.313.313,0,0,1,.313.313" fill="rgba(0,0,0,0)" stroke="#8e8e8e" stroke-linecap="round" stroke-linejoin="round" stroke-width="0.937"/>
      <path id="Path_198" data-name="Path 198" d="M21.11,25.8a.313.313,0,0,1,.313-.313" fill="rgba(0,0,0,0)" stroke="#8e8e8e" stroke-linecap="round" stroke-linejoin="round" stroke-width="0.937"/>
      <path id="Path_199" data-name="Path 199" d="M21.423,26.11a.313.313,0,0,1-.313-.313" fill="rgba(0,0,0,0)" stroke="#8e8e8e" stroke-linecap="round" stroke-linejoin="round" stroke-width="0.937"/>
      <path id="Path_200" data-name="Path 200" d="M21.736,25.8a.313.313,0,0,1-.313.313" fill="rgba(0,0,0,0)" stroke="#8e8e8e" stroke-linecap="round" stroke-linejoin="round" stroke-width="0.937"/>
      <path id="Path_201" data-name="Path 201" d="M18.3,10.487a.313.313,0,0,1,.313.313" fill="rgba(0,0,0,0)" stroke="#8e8e8e" stroke-linecap="round" stroke-linejoin="round" stroke-width="0.937"/>
      <path id="Path_202" data-name="Path 202" d="M17.986,10.8a.313.313,0,0,1,.313-.313" fill="rgba(0,0,0,0)" stroke="#8e8e8e" stroke-linecap="round" stroke-linejoin="round" stroke-width="0.937"/>
      <path id="Path_203" data-name="Path 203" d="M18.3,11.111a.313.313,0,0,1-.313-.313" fill="rgba(0,0,0,0)" stroke="#8e8e8e" stroke-linecap="round" stroke-linejoin="round" stroke-width="0.937"/>
      <path id="Path_204" data-name="Path 204" d="M18.611,10.8a.313.313,0,0,1-.313.313" fill="rgba(0,0,0,0)" stroke="#8e8e8e" stroke-linecap="round" stroke-linejoin="round" stroke-width="0.937"/>
    </g>
  </g>
</svg>
