<svg viewBox="0 0 24 24" height="48" width="48" xmlns="http://www.w3.org/2000/svg"><path d="M0.5 16.5L4.5 4.5 7.166 4.5" fill="none" stroke="#8e8e8e" stroke-linecap="round" stroke-linejoin="round"></path><path d="M16.854 4.5L19.5 4.5 21.244 9.731" fill="none" stroke="#8e8e8e" stroke-linecap="round" stroke-linejoin="round"></path><path d="M9,22.5H2A1.5,1.5,0,0,1,.5,21V16.5H9" fill="none" stroke="#8e8e8e" stroke-linecap="round" stroke-linejoin="round"></path><path d="M3.167 8.5L20.833 8.5" fill="none" stroke="#8e8e8e" stroke-linecap="round" stroke-linejoin="round"></path><path d="M17.281,5.842a.5.5,0,0,1-.475.658H7.194a.5.5,0,0,1-.475-.658l.667-2A.5.5,0,0,1,7.86,3.5h8.28a.5.5,0,0,1,.474.342Z" fill="none" stroke="#8e8e8e" stroke-linecap="round" stroke-linejoin="round"></path><path d="M4.5,4.5V2A1.5,1.5,0,0,1,6,.5H18A1.5,1.5,0,0,1,19.5,2V4.5" fill="none" stroke="#8e8e8e" stroke-linecap="round" stroke-linejoin="round"></path><path d="M3.5 22.5L3.5 23.5" fill="none" stroke="#8e8e8e" stroke-linecap="round" stroke-linejoin="round"></path><path d="M11.500 17.500 A6.000 6.000 0 1 0 23.500 17.500 A6.000 6.000 0 1 0 11.500 17.500 Z" fill="none" stroke="#8e8e8e" stroke-linecap="round" stroke-linejoin="round"></path><path d="M17.5 14.5L17.5 20.5" fill="none" stroke="#8e8e8e" stroke-linecap="round" stroke-linejoin="round"></path><path d="M20.5 17.5L14.5 17.5" fill="none" stroke="#8e8e8e" stroke-linecap="round" stroke-linejoin="round"></path><path d="M11.500 17.500 A6.000 6.000 0 1 0 23.500 17.500 A6.000 6.000 0 1 0 11.500 17.500 Z" fill="none" stroke="#8e8e8e" stroke-linecap="round" stroke-linejoin="round"></path><path d="M17.5 14.5L17.5 20.5" fill="none" stroke="#8e8e8e" stroke-linecap="round" stroke-linejoin="round"></path><path d="M20.5 17.5L14.5 17.5" fill="none" stroke="#8e8e8e" stroke-linecap="round" stroke-linejoin="round"></path></svg>