<svg viewBox="0 0 24 24" height="48" width="48" xmlns="http://www.w3.org/2000/svg"><path d="M23.5,20.923c-2.5.521-4.06-1.979-4.06-1.979h0A4.4,4.4,0,0,1,15.814,21,4.607,4.607,0,0,1,12.2,18.944h0A4.517,4.517,0,0,1,9.5,20.9" fill="none" stroke="#8e8e8e" stroke-linecap="round" stroke-linejoin="round"></path><path d="M9.5,18V13.5C9.5,8.5,16,7,16,7H4.5V21h5" fill="none" stroke="#8e8e8e" stroke-linecap="round" stroke-linejoin="round"></path><path d="M16.001 7L22.001 7" fill="none" stroke="#8e8e8e" stroke-linecap="round" stroke-linejoin="round"></path><path d="M11.5,7V4a1,1,0,0,0-1-1h-5a1,1,0,0,0-1,1V7" fill="none" stroke="#8e8e8e" stroke-linecap="round" stroke-linejoin="round"></path><path d="M4.5,7H1a.5.5,0,0,0-.5.5V21" fill="none" stroke="#8e8e8e" stroke-linecap="round" stroke-linejoin="round"></path><path d="M0.501 10L4.501 10" fill="none" stroke="#8e8e8e" stroke-linecap="round" stroke-linejoin="round"></path><path d="M0.501 13L4.501 13" fill="none" stroke="#8e8e8e" stroke-linecap="round" stroke-linejoin="round"></path><path d="M0.501 16L4.501 16" fill="none" stroke="#8e8e8e" stroke-linecap="round" stroke-linejoin="round"></path><path d="M0.501 19L4.501 19" fill="none" stroke="#8e8e8e" stroke-linecap="round" stroke-linejoin="round"></path></svg>