<svg id="Group_189" data-name="Group 189" xmlns="http://www.w3.org/2000/svg" xmlns:xlink="http://www.w3.org/1999/xlink" width="24.624" height="24.625" viewBox="0 0 24.624 24.625">
  <defs>
    <clipPath id="clip-path">
      <rect id="Rectangle_113" data-name="Rectangle 113" width="24.624" height="24.625" fill="#ab9472"/>
    </clipPath>
  </defs>
  <g id="Group_183" data-name="Group 183" clip-path="url(#clip-path)">
    <path id="Path_511" data-name="Path 511" d="M12.312,0A12.312,12.312,0,1,0,24.624,12.312,12.313,12.313,0,0,0,12.312,0M19.17,18.293a1,1,0,0,1-1.015.991H6.446a1,1,0,0,1-1.016-.991V6.448a1,1,0,0,1,1.016-.991H18.154a1,1,0,0,1,1.015.991Z" fill="#ab9472"/>
    <path id="Path_512" data-name="Path 512" d="M25.432,21.285a2.061,2.061,0,0,0-1.87,1.03v.021h-.014l.014-.021v-.884H21.487c.027.585,0,6.242,0,6.242h2.075V24.187a1.414,1.414,0,0,1,.069-.506,1.138,1.138,0,0,1,1.064-.76c.751,0,1.051.573,1.051,1.412v3.339h2.075V24.094c0-1.918-1.024-2.809-2.389-2.809" transform="translate(-10.744 -10.643)" fill="#ab9472"/>
    <path id="Path_513" data-name="Path 513" d="M15.969,15.557a1.082,1.082,0,1,0-.028,2.158h.014a1.082,1.082,0,1,0,.014-2.158" transform="translate(-7.398 -7.779)" fill="#ab9472"/>
    <rect id="Rectangle_112" data-name="Rectangle 112" width="2.075" height="6.242" transform="translate(7.52 10.789)" fill="#ab9472"/>
  </g>
</svg>
