<svg xmlns="http://www.w3.org/2000/svg" xmlns:xlink="http://www.w3.org/1999/xlink" width="21.372" height="26.46" viewBox="0 0 21.372 26.46">
  <defs>
    <clipPath id="clip-path">
      <rect id="Rectangle_108" data-name="Rectangle 108" width="21.372" height="26.46" fill="#ab9472"/>
    </clipPath>
  </defs>
  <g id="Group_170" data-name="Group 170" transform="translate(0 -0.327)">
    <g id="Group_172" data-name="Group 172" transform="translate(0 0.327)" clip-path="url(#clip-path)">
      <path id="Path_507" data-name="Path 507" d="M4.4,12.68a2.015,2.015,0,0,0-.5.048v1.585a1.832,1.832,0,0,0,.406.031c.644,0,1.041-.326,1.041-.876,0-.492-.342-.788-.947-.788m4.691.016a2.482,2.482,0,0,0-.548.048v3.511a2.2,2.2,0,0,0,.421.024A1.663,1.663,0,0,0,10.775,14.4,1.54,1.54,0,0,0,9.086,12.7" transform="translate(1.345 4.045)" fill="#ab9472"/>
      <path id="Path_508" data-name="Path 508" d="M13.452,0H2.69A2.69,2.69,0,0,0,0,2.69V24.214A2.69,2.69,0,0,0,2.69,26.9H18.833a2.69,2.69,0,0,0,2.69-2.69V8.071ZM7.4,19.089a2.494,2.494,0,0,1-1.743.565,3.045,3.045,0,0,1-.414-.024v1.918h-1.2V16.253a10.13,10.13,0,0,1,1.64-.11,2.578,2.578,0,0,1,1.641.429,1.573,1.573,0,0,1,.573,1.242A1.725,1.725,0,0,1,7.4,19.089m5.121,1.823a3.851,3.851,0,0,1-2.475.693,10.364,10.364,0,0,1-1.378-.081V16.255a10.62,10.62,0,0,1,1.64-.112,3.45,3.45,0,0,1,2.2.573,2.373,2.373,0,0,1,.908,2.023,2.722,2.722,0,0,1-.892,2.173m4.971-3.733H15.427V18.4h1.926v.987H15.427v2.158H14.208V16.183h3.28ZM13.452,9.417H12.107V2.69l6.726,6.726Z" transform="translate(0 -0.333)" fill="#ab9472"/>
    </g>
  </g>
</svg>
