<svg xmlns="http://www.w3.org/2000/svg" xmlns:xlink="http://www.w3.org/1999/xlink" width="44" height="41.798" viewBox="0 0 44 41.798">
  <defs>
    <clipPath id="clip-path">
      <rect id="Rectangle_126" data-name="Rectangle 126" width="44" height="41.798" fill="#c4cfd5"/>
    </clipPath>
  </defs>
  <g id="Group_257" data-name="Group 257" transform="translate(0 0)">
    <g id="Group_249" data-name="Group 249" transform="translate(0 0)" clip-path="url(#clip-path)">
      <path id="Path_520" data-name="Path 520" d="M42.179,17.814a1.129,1.129,0,1,0,1.385-1.783L23.257.237a1.131,1.131,0,0,0-1.385,0L15.8,4.962c-1.631-2.331-3.581-3.834-5.643-3.834C4.687,1.128,0,11.675,0,20.308c0,8.432,4.635,11.848,9.026,12.34V33.83a5.618,5.618,0,0,0-4.6,2.218,4.379,4.379,0,0,0-.65,3.439H3.385a1.128,1.128,0,1,0,0,2.256h2A1.143,1.143,0,0,0,5.7,41.8a1.136,1.136,0,0,0,.257-.054H41.744a.9.9,0,0,0,.176-.036,1.073,1.073,0,0,0,.228-.045,1.123,1.123,0,0,0,.2-.12,1,1,0,0,0,.165-.111,1.17,1.17,0,0,0,.156-.205,1.049,1.049,0,0,0,.095-.129l.011-.029.016-.045a4.129,4.129,0,0,0-.009-3.446,3.922,3.922,0,0,0-1.774-1.841,8.685,8.685,0,0,0-2.649-5.368V14.843ZM2.256,20.308c0-7.909,4.206-16.923,7.9-16.923s7.9,9.014,7.9,16.923c0,6.751-3.319,9.56-6.769,10.052V18.051a1.128,1.128,0,0,0-2.256,0V30.36c-3.45-.492-6.769-3.3-6.769-10.052M38.792,36.529a1.126,1.126,0,0,0,.844,1.088,1.668,1.668,0,0,1,1.1.918,1.808,1.808,0,0,1,.133.952H6.2a2.066,2.066,0,0,1,.083-2.153,3.458,3.458,0,0,1,2.866-1.264A4.787,4.787,0,0,1,11.86,37a1.127,1.127,0,0,0,1.577-.232,6.589,6.589,0,0,1,5.492-2.656,6.7,6.7,0,0,1,5.327,2.978,1.128,1.128,0,0,0,2.071-.643,5.951,5.951,0,0,1,3.021-5.242,6.238,6.238,0,0,1,9.443,5.323M36.1,13.538V28.862a8.628,8.628,0,0,0-7.913.406,8.385,8.385,0,0,0-3.757,4.675,8.832,8.832,0,0,0-12.13.679A7.188,7.188,0,0,0,11.21,34.2a1.089,1.089,0,0,0,.072-.354v-1.2c4.391-.492,9.026-3.908,9.026-12.34a29.916,29.916,0,0,0-3.337-13.4l5.594-4.35L36.182,13.148a1.125,1.125,0,0,0-.079.39" transform="translate(0 -0.001)" fill="#c4cfd5"/>
    </g>
  </g>
</svg>
