<svg xmlns="http://www.w3.org/2000/svg" xmlns:xlink="http://www.w3.org/1999/xlink" width="30" height="30" viewBox="0 0 30 30">
  <defs>
    <clipPath id="clip-path">
      <rect id="Rectangle_62" data-name="Rectangle 62" width="30" height="30" transform="translate(691 2468)" fill="#2b2e2e"/>
    </clipPath>
  </defs>
  <g id="Mask_Group_15" data-name="Mask Group 15" transform="translate(-691 -2468)" clip-path="url(#clip-path)">
    <g id="Outdoor_Living_Spaces_Rooftop_deck_icon" data-name="Outdoor Living Spaces_Rooftop deck  icon" transform="translate(689.07 2472.181)">
      <path id="Path_1315" data-name="Path 1315" d="M.645,30.323H29.677" transform="translate(1.769 -32.568)" fill="rgba(0,0,0,0)" stroke="#8e8e8e" stroke-linecap="round" stroke-linejoin="round" stroke-width="0.968"/>
      <path id="Path_1320" data-name="Path 1320" d="M.645,30.323H29.677" transform="translate(1.769 -25.161)" fill="rgba(0,0,0,0)" stroke="#8e8e8e" stroke-linecap="round" stroke-linejoin="round" stroke-width="0.968"/>
      <path id="Path_1317" data-name="Path 1317" d="M29.344,5.357h0V22.086A1.426,1.426,0,0,1,27.8,23.34H6.068a1.426,1.426,0,0,1-1.548-1.254V5.357" transform="translate(0 0.53)" fill="rgba(0,0,0,0)" stroke="#8e8e8e" stroke-linecap="round" stroke-linejoin="round" stroke-width="0.968"/>
      <path id="Path_1318" data-name="Path 1318" d="M.645,15.575H26.119" transform="translate(3.548 -11.764)" fill="rgba(0,0,0,0)" stroke="#8e8e8e" stroke-linecap="round" stroke-linejoin="round" stroke-width="0.968"/>
      <path id="Path_1319" data-name="Path 1319" d="M10.968,14.839s-.07-1.705,2.259-1.651a2.011,2.011,0,0,1,2.388,1.651V24.1H10.97Z" transform="translate(3.639 -0.225)" fill="rgba(0,0,0,0)" stroke="#8e8e8e" stroke-linecap="round" stroke-linejoin="round" stroke-width="0.968"/>
      <path id="Path_1328" data-name="Path 1328" d="M0,0H6.058" transform="translate(20.323 -2.245) rotate(90)" fill="rgba(0,0,0,0)" stroke="#8e8e8e" stroke-linecap="round" stroke-linejoin="round" stroke-width="0.968"/>
      <path id="Path_1324" data-name="Path 1324" d="M0,0H6.058" transform="translate(9.015 -2.245) rotate(90)" fill="rgba(0,0,0,0)" stroke="#8e8e8e" stroke-linecap="round" stroke-linejoin="round" stroke-width="0.968"/>
      <path id="Path_1326" data-name="Path 1326" d="M0,0H6.058" transform="translate(29.667 -2.245) rotate(90)" fill="rgba(0,0,0,0)" stroke="#8e8e8e" stroke-linecap="round" stroke-linejoin="round" stroke-width="0.968"/>
      <path id="Path_1322" data-name="Path 1322" d="M0,0H6.058" transform="translate(4.194 -2.245) rotate(90)" fill="rgba(0,0,0,0)" stroke="#8e8e8e" stroke-linecap="round" stroke-linejoin="round" stroke-width="0.968"/>
      <path id="Path_1327" data-name="Path 1327" d="M0,0H6.058" transform="translate(24.846 -2.245) rotate(90)" fill="rgba(0,0,0,0)" stroke="#8e8e8e" stroke-linecap="round" stroke-linejoin="round" stroke-width="0.968"/>
      <path id="Path_1323" data-name="Path 1323" d="M0,0H6.058" transform="translate(13.539 -2.245) rotate(90)" fill="rgba(0,0,0,0)" stroke="#8e8e8e" stroke-linecap="round" stroke-linejoin="round" stroke-width="0.968"/>
    </g>
  </g>
</svg>
