<svg xmlns="http://www.w3.org/2000/svg" viewBox="0 0 24 24" height="48" width="48"><defs></defs><title>saving-safe</title><rect x="0.504" y="0.5" width="23" height="22" rx="2" ry="2" fill="none" stroke="#8e8e8e" stroke-linecap="round" stroke-linejoin="round"></rect><line x1="2.504" y1="22.5" x2="2.504" y2="23.5" fill="none" stroke="#8e8e8e" stroke-linecap="round" stroke-linejoin="round"></line><line x1="21.504" y1="22.5" x2="21.504" y2="23.5" fill="none" stroke="#8e8e8e" stroke-linecap="round" stroke-linejoin="round"></line><path d="M3.5,16.5v1a2,2,0,0,0,2,2h13a2,2,0,0,0,2-2V5.5a2,2,0,0,0-2-2H5.5a2,2,0,0,0-2,2v1" fill="none" stroke="#8e8e8e" stroke-linecap="round" stroke-linejoin="round"></path><line x1="3.504" y1="9.5" x2="3.504" y2="13.5" fill="none" stroke="#8e8e8e" stroke-linecap="round" stroke-linejoin="round"></line><rect x="2.504" y="6.5" width="2" height="3" fill="none" stroke="#8e8e8e" stroke-linecap="round" stroke-linejoin="round"></rect><rect x="2.504" y="13.5" width="2" height="3" fill="none" stroke="#8e8e8e" stroke-linecap="round" stroke-linejoin="round"></rect><circle cx="12.504" cy="11.5" r="4.5" fill="none" stroke="#8e8e8e" stroke-linecap="round" stroke-linejoin="round"></circle><circle cx="12.504" cy="11.5" r="2.5" fill="none" stroke="#8e8e8e" stroke-linecap="round" stroke-linejoin="round"></circle><line x1="12.504" y1="7" x2="12.504" y2="9" fill="none" stroke="#8e8e8e" stroke-linecap="round" stroke-linejoin="round"></line><line x1="9.322" y1="8.318" x2="10.736" y2="9.733" fill="none" stroke="#8e8e8e" stroke-linecap="round" stroke-linejoin="round"></line><line x1="8.004" y1="11.5" x2="10.004" y2="11.5" fill="none" stroke="#8e8e8e" stroke-linecap="round" stroke-linejoin="round"></line><line x1="9.322" y1="14.682" x2="10.736" y2="13.268" fill="none" stroke="#8e8e8e" stroke-linecap="round" stroke-linejoin="round"></line><line x1="12.504" y1="16" x2="12.504" y2="14" fill="none" stroke="#8e8e8e" stroke-linecap="round" stroke-linejoin="round"></line><line x1="15.686" y1="14.683" x2="14.272" y2="13.268" fill="none" stroke="#8e8e8e" stroke-linecap="round" stroke-linejoin="round"></line><line x1="17.004" y1="11.5" x2="15.004" y2="11.5" fill="none" stroke="#8e8e8e" stroke-linecap="round" stroke-linejoin="round"></line><line x1="15.686" y1="8.318" x2="14.272" y2="9.733" fill="none" stroke="#8e8e8e" stroke-linecap="round" stroke-linejoin="round"></line></svg>