<svg id="Group_251" data-name="Group 251" xmlns="http://www.w3.org/2000/svg" xmlns:xlink="http://www.w3.org/1999/xlink" width="44" height="31.922" viewBox="0 0 44 31.922">
  <defs>
    <clipPath id="clip-path">
      <rect id="Rectangle_125" data-name="Rectangle 125" width="44" height="31.922" fill="#c4cfd5"/>
    </clipPath>
  </defs>
  <g id="Group_247" data-name="Group 247" transform="translate(0 0)" clip-path="url(#clip-path)">
    <path id="Path_518" data-name="Path 518" d="M43.9,13.245a1.083,1.083,0,0,0-.614-.56l-4.254-1.547a1.069,1.069,0,0,0-1.05-.92H36.219a1.057,1.057,0,0,0-.382-.243L8.616.067A1.084,1.084,0,0,0,7.225.716l-3.46,9.5H1.085A1.086,1.086,0,0,0,0,11.3V30.836a1.084,1.084,0,0,0,1.085,1.085h36.9a1.084,1.084,0,0,0,1.085-1.085V27.381c.011-.024.037-.035.046-.061l4.823-13.246a1.087,1.087,0,0,0-.035-.829m-7,3.483a4.345,4.345,0,0,1-4.341-4.341H36.9Zm-28-14.253,21.272,7.742H6.075ZM2.17,12.388H6.511A4.345,4.345,0,0,1,2.17,16.729Zm0,17.363V25.41a4.345,4.345,0,0,1,4.341,4.341Zm34.726,0H32.556A4.345,4.345,0,0,1,36.9,25.41Zm-6.511,0H8.681A6.519,6.519,0,0,0,2.17,23.24V18.9a6.518,6.518,0,0,0,6.511-6.511h21.7A6.518,6.518,0,0,0,36.9,18.9V23.24a6.519,6.519,0,0,0-6.511,6.511m8.681-8.645V13.458l2.459.894Z" transform="translate(0 0)" fill="#c4cfd5"/>
    <path id="Path_519" data-name="Path 519" d="M12.511,6.708a6.511,6.511,0,1,0,6.511,6.511,6.519,6.519,0,0,0-6.511-6.511m0,10.852a4.341,4.341,0,1,1,4.341-4.341,4.345,4.345,0,0,1-4.341,4.341" transform="translate(7.022 7.851)" fill="#c4cfd5"/>
  </g>
</svg>
