<svg xmlns="http://www.w3.org/2000/svg" viewBox="0 0 23.998 24" height="48" width="48"><defs></defs><path d="M23.5,7.5V19a1,1,0,0,1-1,1H1.5a1,1,0,0,1-1-1V4a1,1,0,0,1,1-1H9" fill="none" stroke="#8e8e8e" stroke-linecap="round" stroke-linejoin="round"></path><rect x="10.499" y="20" width="3" height="3" fill="none" stroke="#8e8e8e" stroke-linecap="round" stroke-linejoin="round"></rect><line x1="6.999" y1="23" x2="16.999" y2="23" fill="none" stroke="#8e8e8e" stroke-linecap="round" stroke-linejoin="round"></line><path d="M16.241,7.586a2,2,0,0,1,2.829,0" fill="none" stroke="#8e8e8e" stroke-linecap="round" stroke-linejoin="round"></path><path d="M14.12,5.464a5,5,0,0,1,7.071,0" fill="none" stroke="#8e8e8e" stroke-linecap="round" stroke-linejoin="round"></path><path d="M12,3.343a8,8,0,0,1,11.314,0" fill="none" stroke="#8e8e8e" stroke-linecap="round" stroke-linejoin="round"></path></svg>