<svg viewBox="0 0 24 24" height="48" width="48" xmlns="http://www.w3.org/2000/svg"><path d="M16.152,18.941a1.006,1.006,0,0,1-.724.31H2.508a2,2,0,1,1,0-4H13.725a1,1,0,0,0,.731-.318l5.517-4.844a2.031,2.031,0,1,1,2.96,2.783Z" fill="none" stroke="#8e8e8e" stroke-linecap="round" stroke-linejoin="round"></path><path d="M4.508 23.251L7.508 19.251" fill="none" stroke="#8e8e8e" stroke-linecap="round" stroke-linejoin="round"></path><path d="M16.466 23.251L13.466 19.251" fill="none" stroke="#8e8e8e" stroke-linecap="round" stroke-linejoin="round"></path><path d="M6.508 1.751L6.508 0.751" fill="none" stroke="#8e8e8e" stroke-linecap="round" stroke-linejoin="round"></path><path d="M9.663 3.071L10.37 2.363" fill="none" stroke="#8e8e8e" stroke-linecap="round" stroke-linejoin="round"></path><path d="M11.008 6.251L12.008 6.251" fill="none" stroke="#8e8e8e" stroke-linecap="round" stroke-linejoin="round"></path><path d="M9.663 9.435L10.37 10.142" fill="none" stroke="#8e8e8e" stroke-linecap="round" stroke-linejoin="round"></path><path d="M6.508 10.751L6.508 11.751" fill="none" stroke="#8e8e8e" stroke-linecap="round" stroke-linejoin="round"></path><path d="M3.299 9.435L2.592 10.142" fill="none" stroke="#8e8e8e" stroke-linecap="round" stroke-linejoin="round"></path><path d="M2.008 6.251L1.008 6.251" fill="none" stroke="#8e8e8e" stroke-linecap="round" stroke-linejoin="round"></path><path d="M3.299 3.071L2.592 2.363" fill="none" stroke="#8e8e8e" stroke-linecap="round" stroke-linejoin="round"></path><path d="M4.008 6.269 A2.500 2.500 0 1 0 9.008 6.269 A2.500 2.500 0 1 0 4.008 6.269 Z" fill="none" stroke="#8e8e8e" stroke-linecap="round" stroke-linejoin="round"></path></svg>