  <svg xmlns="http://www.w3.org/2000/svg" xmlns:xlink="http://www.w3.org/1999/xlink" width="39.971" height="44" viewBox="0 0 39.971 44">
  <defs>
    <clipPath id="clip-path">
      <rect id="Rectangle_124" data-name="Rectangle 124" width="39.971" height="44" fill="#c4cfd5"/>
    </clipPath>
  </defs>
  <g id="Group_250" data-name="Group 250" transform="translate(0 0)">
    <g id="Group_245" data-name="Group 245" transform="translate(0 0)" clip-path="url(#clip-path)">
      <path id="Path_514" data-name="Path 514" d="M39.614,19.274l-.386-.771a3.405,3.405,0,0,0-4.289-1.632L25.77,20.54H19.226a1.13,1.13,0,1,1,0-2.26h4.536a3.39,3.39,0,1,0,0-6.78H5.65a1.148,1.148,0,0,0-.506.118l-4.52,2.26A1.13,1.13,0,1,0,1.635,15.9l4.282-2.14H23.761a1.133,1.133,0,0,1,1.13,1.112,1.115,1.115,0,0,1-.323.809,1.13,1.13,0,0,1-.807.339H19.226a3.39,3.39,0,1,0,0,6.78h6.764a1.147,1.147,0,0,0,.418-.081l9.369-3.747a1.121,1.121,0,0,1,1.431.542l.384.771a1.131,1.131,0,0,1-.436,1.48l-9.331,5.485h-15.1L6.484,22.827a1.135,1.135,0,0,0-.653-.21H1.192a1.13,1.13,0,1,0,0,2.26h4.28L11.707,29.3a1.133,1.133,0,0,0,.653.208H28.132a1.126,1.126,0,0,0,.572-.156l9.6-5.641a3.4,3.4,0,0,0,1.313-4.438" transform="translate(-0.001 14.489)" fill="#c4cfd5"/>
      <path id="Path_515" data-name="Path 515" d="M9.52,9.04A4.52,4.52,0,1,0,5,4.52,4.524,4.524,0,0,0,9.52,9.04m0-6.78A2.26,2.26,0,1,1,7.26,4.52,2.264,2.264,0,0,1,9.52,2.26" transform="translate(6.299 0.001)" fill="#c4cfd5"/>
      <path id="Path_516" data-name="Path 516" d="M13.52,6a4.52,4.52,0,1,0,4.52,4.52A4.524,4.524,0,0,0,13.52,6m0,6.78a2.26,2.26,0,1,1,2.26-2.26,2.262,2.262,0,0,1-2.26,2.26" transform="translate(11.339 7.56)" fill="#c4cfd5"/>
      <path id="Path_517" data-name="Path 517" d="M6.13,19.079a1.135,1.135,0,0,0,.8-.33L22.749,2.93a1.131,1.131,0,0,0-1.6-1.6L5.33,17.149a1.13,1.13,0,0,0,.8,1.93" transform="translate(6.299 1.26)" fill="#c4cfd5"/>
    </g>
  </g>
</svg>
