<svg id="Group_188" data-name="Group 188" xmlns="http://www.w3.org/2000/svg" xmlns:xlink="http://www.w3.org/1999/xlink" width="24.624" height="24.624" viewBox="0 0 24.624 24.624">
  <defs>
    <clipPath id="clip-path">
      <rect id="Rectangle_111" data-name="Rectangle 111" width="24.624" height="24.624" fill="#ab9472"/>
    </clipPath>
  </defs>
  <g id="Group_181" data-name="Group 181" clip-path="url(#clip-path)">
    <path id="Path_510" data-name="Path 510" d="M12.312,0A12.312,12.312,0,1,0,24.624,12.312,12.313,12.313,0,0,0,12.312,0m6.2,9.83c.006.134.009.267.009.4A8.824,8.824,0,0,1,4.939,17.666a6.339,6.339,0,0,0,.74.043,6.225,6.225,0,0,0,3.853-1.328,3.106,3.106,0,0,1-2.9-2.155,3.067,3.067,0,0,0,.583.056,3.105,3.105,0,0,0,.818-.108,3.105,3.105,0,0,1-2.489-3.042c0-.014,0-.026,0-.039a3.1,3.1,0,0,0,1.4.388,3.106,3.106,0,0,1-.96-4.143,8.807,8.807,0,0,0,6.4,3.241,3.1,3.1,0,0,1,5.287-2.83A6.2,6.2,0,0,0,19.645,7,3.112,3.112,0,0,1,18.28,8.712a6.225,6.225,0,0,0,1.782-.489A6.306,6.306,0,0,1,18.515,9.83" fill="#ab9472"/>
  </g>
</svg>
