<svg xmlns="http://www.w3.org/2000/svg" viewBox="0 0 24 24" height="48" width="48"><g><path d="M7.5,17.31c.42-1.69,3.39-1.69,3.81,0,0-1.71,3.19-1.69,3.18,0a7.06,7.06,0,0,0-7-7.62,7.06,7.06,0,0,0-7,7.62c0-1.69,3.16-1.71,3.18,0C4.11,15.62,7.07,15.62,7.5,17.31Z" fill="none" stroke="#8e8e8e" stroke-linecap="round" stroke-linejoin="round"></path><path d="M11.13,8.19a4,4,0,1,1,5.36,4.71" fill="none" stroke="#8e8e8e" stroke-linecap="round" stroke-linejoin="round"></path><line x1="15" y1="0.69" x2="15" y2="2.69" fill="none" stroke="#8e8e8e" stroke-linecap="round" stroke-linejoin="round"></line><line x1="23.5" y1="8.69" x2="21.5" y2="8.69" fill="none" stroke="#8e8e8e" stroke-linecap="round" stroke-linejoin="round"></line><line x1="8.99" y1="3.18" x2="10.4" y2="4.59" fill="none" stroke="#8e8e8e" stroke-linecap="round" stroke-linejoin="round"></line><line x1="20.66" y1="2.82" x2="19.24" y2="4.24" fill="none" stroke="#8e8e8e" stroke-linecap="round" stroke-linejoin="round"></line><line x1="21.01" y1="15.2" x2="19.6" y2="13.78" fill="none" stroke="#8e8e8e" stroke-linecap="round" stroke-linejoin="round"></line><path d="M7.5,17.31v4.88a1,1,0,1,0,2,0" fill="none" stroke="#8e8e8e" stroke-linecap="round" stroke-linejoin="round"></path><line x1="7.5" y1="9.69" x2="7.5" y2="8.19" fill="none" stroke="#8e8e8e" stroke-linecap="round" stroke-linejoin="round"></line></g></svg>