<svg xmlns="http://www.w3.org/2000/svg" xmlns:xlink="http://www.w3.org/1999/xlink" width="30" height="30" viewBox="0 0 30 30">
  <defs>
    <clipPath id="clip-path">
      <rect id="Rectangle_58" data-name="Rectangle 58" width="30" height="30" transform="translate(415 2511)" fill="#2b2e2e"/>
    </clipPath>
  </defs>
  <g id="Mask_Group_18" data-name="Mask Group 18" transform="translate(-415 -2511)" clip-path="url(#clip-path)">
    <g id="Proximity_Walk_to_town_icon" data-name="Proximity_Walk to town icon" transform="translate(414.894 2510.843)">
      <g id="Group_23" data-name="Group 23">
        <circle id="Ellipse_37" data-name="Ellipse 37" cx="3.147" cy="3.147" r="3.147" transform="translate(12.588 0.629)" fill="rgba(0,0,0,0)" stroke="#8e8e8e" stroke-linecap="round" stroke-linejoin="round" stroke-width="0.944"/>
        <line id="Line_179" data-name="Line 179" y1="5.664" x2="1.259" transform="translate(1.259 23.916)" fill="none" stroke="#8e8e8e" stroke-linecap="round" stroke-linejoin="round" stroke-width="0.944"/>
        <line id="Line_180" data-name="Line 180" y1="5.664" x2="1.259" transform="translate(5.036 23.916)" fill="none" stroke="#8e8e8e" stroke-linecap="round" stroke-linejoin="round" stroke-width="0.944"/>
        <line id="Line_181" data-name="Line 181" x1="1.259" y1="5.664" transform="translate(27.693 23.916)" fill="none" stroke="#8e8e8e" stroke-linecap="round" stroke-linejoin="round" stroke-width="0.944"/>
        <line id="Line_182" data-name="Line 182" x1="1.259" y1="5.664" transform="translate(23.916 23.916)" fill="none" stroke="#8e8e8e" stroke-linecap="round" stroke-linejoin="round" stroke-width="0.944"/>
        <path id="Path_987" data-name="Path 987" d="M25.1,14.978a1.875,1.875,0,0,0-2.341-1.259,3.11,3.11,0,0,1-3.3-1.5,7.237,7.237,0,0,0-4.82-3.285,6.293,6.293,0,0,0-.68-.127,7.288,7.288,0,0,0-6,2.368L5.036,14.349a1.864,1.864,0,0,0,.127,2.657,1.888,1.888,0,0,0,2.668-.113l2.894-3.172a3.31,3.31,0,0,1,1.259-.855L8.812,27.29a1.888,1.888,0,1,0,3.687.793l1.259-5.915.529.391a4.443,4.443,0,0,1,1.737,2.983l.34,2.379a1.9,1.9,0,0,0,3.776-.466l-.3-2.379a8.219,8.219,0,0,0-3.21-5.538L14.716,18.1l.982-4.582a3.083,3.083,0,0,1,.58.693,6.848,6.848,0,0,0,7.552,3.1A1.875,1.875,0,0,0,25.1,14.982Z" fill="rgba(0,0,0,0)" stroke="#8e8e8e" stroke-linecap="round" stroke-linejoin="round" stroke-width="0.944"/>
      </g>
    </g>
  </g>
</svg>
