<svg viewBox="0 0 24 24" height="48" width="48" xmlns="http://www.w3.org/2000/svg"><path d="M5.03,10.43a10,10,0,0,1,14.142,0" fill="none" stroke="#8e8e8e" stroke-linecap="round" stroke-linejoin="round"></path><path d="M22,6.6a14,14,0,0,0-19.8,0" fill="none" stroke="#8e8e8e" stroke-linecap="round" stroke-linejoin="round"></path><path d="M7.857,14.257a6,6,0,0,1,8.486,0" fill="none" stroke="#8e8e8e" stroke-linecap="round" stroke-linejoin="round"></path><path d="M19.172,10.43a10,10,0,0,0-14.142,0" fill="none" stroke="#8e8e8e" stroke-linecap="round" stroke-linejoin="round"></path><path d="M16.344,14.257a6,6,0,0,0-8.486,0" fill="none" stroke="#8e8e8e" stroke-linecap="round" stroke-linejoin="round"></path><path d="M10.100 19.500 A2.000 2.000 0 1 0 14.100 19.500 A2.000 2.000 0 1 0 10.100 19.500 Z" fill="none" stroke="#8e8e8e" stroke-linecap="round" stroke-linejoin="round"></path></svg>